<svg width="892" height="880" viewBox="0 0 892 880" fill="none" xmlns="http://www.w3.org/2000/svg">
<g clip-path="url(#clip0)">
<path d="M689.189 0H202.703C90.7531 0 0 89.5431 0 200V680C0 790.457 90.7531 880 202.703 880H689.189C801.139 880 891.892 790.457 891.892 680V200C891.892 89.5431 801.139 0 689.189 0Z" fill="#DEDEDE"/>
<path d="M689.189 13.3334H202.703C98.2163 13.3334 13.5134 96.9069 13.5134 200V680C13.5134 783.093 98.2163 866.667 202.703 866.667H689.189C793.675 866.667 878.378 783.093 878.378 680V200C878.378 96.9069 793.675 13.3334 689.189 13.3334Z" stroke="#2E4053" stroke-width="29"/>
<path d="M416.559 430.279C401.514 471.065 380.024 500.39 352.086 518.254C324.375 536.017 294.564 539.167 262.652 527.706C235.536 517.969 217.058 500.802 207.218 476.206L161.179 601.01L89.5024 575.269L224.729 208.691L291.198 232.561L284.109 259.391C309.054 245.07 335.497 242.927 363.44 252.962C396.51 264.838 417.767 286.143 427.214 316.879C436.66 347.615 433.56 384.191 417.913 426.609L416.559 430.279ZM346.778 399.399C355.866 374.765 358.412 354.157 354.418 337.573C350.59 321.047 340.243 309.757 323.378 303.701C300.89 295.625 282.301 298.557 267.61 312.494L227.62 420.902C229.944 441.505 242.349 455.845 264.836 463.919C299.063 476.211 326.376 454.705 346.778 399.399ZM451.667 437.898C466.893 396.623 488.362 367.106 516.072 349.345C543.949 331.642 574.174 328.639 606.747 340.338C632.871 349.719 650.898 367.094 660.828 392.461L710.658 257.379L782.583 283.209L643.927 659.086L579.193 635.839L586.102 606.45C560.12 622.062 533.075 624.821 504.966 614.726C473.385 603.385 452.518 582.034 442.366 550.675C432.437 519.213 435.539 481.621 451.667 437.898ZM521.448 468.778C512.301 493.575 509.671 514.155 513.56 530.517C517.449 546.878 527.743 558.057 544.443 564.054C566.599 572.011 585.625 568.405 601.52 553.235L640.066 448.743C637.937 427.102 625.878 412.333 603.886 404.435C569.329 392.026 541.849 413.473 521.448 468.778Z" fill="#2E4053"/>
</g>
<defs>
<clipPath id="clip0">
<rect width="892" height="880" fill="white"/>
</clipPath>
</defs>
</svg>
